<svg width="95" height="30" viewBox="0 0 95 30" fill="none" xmlns="http://www.w3.org/2000/svg">
<path d="M24.4538 6.15148L16.0815 7.21463C15.484 7.2905 15.0361 7.79884 15.0361 8.40114V16.9808C15.0361 17.5796 15.4789 18.0861 16.0723 18.1661L24.4446 19.2957C25.1622 19.3925 25.8005 18.8345 25.8005 18.1104V7.338C25.8005 6.61764 25.1684 6.06073 24.4538 6.15148Z" fill="#161616"/>
<path d="M19.1924 0.237602L0.995449 3.33335C0.420557 3.43115 0 3.9293 0 4.51245V21.4463C0 22.0349 0.428303 22.5361 1.00976 22.6277L19.2067 25.497C19.9326 25.6114 20.589 25.0504 20.589 24.3155V20.6317C20.589 20.4605 20.4624 20.3157 20.2927 20.293L14.6207 19.5321C14.0269 19.4524 13.5836 18.9458 13.5836 18.3467V12.8575V7.33109C13.5836 6.7482 14.0038 6.2502 14.5784 6.15211L20.3048 5.17442C20.469 5.1464 20.589 5.00411 20.589 4.83757V1.4167C20.589 0.675993 19.9226 0.113374 19.1924 0.237602Z" fill="#1252D3"/>
<path d="M5.26218 14.483C5.31685 14.9341 5.45354 15.2622 5.63124 15.4946C5.9593 15.891 6.5334 16.096 7.33987 16.096C7.83196 16.096 8.22836 16.0413 8.52908 15.932C9.10318 15.7269 9.39023 15.3442 9.39023 14.7974C9.39023 14.4694 9.25354 14.2233 8.96649 14.0456C8.67944 13.8679 8.22836 13.7176 7.61326 13.5809L6.57441 13.3485C5.5629 13.1161 4.8521 12.8701 4.4557 12.5967C3.79959 12.132 3.45786 11.4348 3.45786 10.4643C3.45786 9.57585 3.78592 8.85139 4.42836 8.26362C5.05714 7.68952 6.00031 7.3888 7.24419 7.3888C8.28304 7.3888 9.17153 7.66218 9.89599 8.20894C10.6341 8.76938 11.0169 9.56218 11.0442 10.6147H9.07585C9.03484 10.0133 8.77513 9.58952 8.29671 9.34348C7.98232 9.17945 7.57225 9.09743 7.1075 9.09743C6.57441 9.09743 6.15066 9.20679 5.83628 9.42549C5.52189 9.63053 5.35786 9.93125 5.35786 10.314C5.35786 10.6694 5.52189 10.9291 5.83628 11.1068C6.02764 11.2161 6.45138 11.3528 7.1075 11.5169L8.80246 11.9133C9.55426 12.1046 10.1147 12.337 10.4838 12.6377C11.0715 13.0888 11.3722 13.7723 11.3722 14.6471C11.3722 15.5356 11.0305 16.2874 10.3471 16.8751C9.64995 17.4766 8.67944 17.7773 7.42189 17.7773C6.15066 17.7773 5.13915 17.4766 4.40102 16.8888C3.66289 16.3147 3.3075 15.5082 3.3075 14.483H5.26218Z" fill="white"/>
<path d="M21.4546 14.7637H20.6444L20.4158 14.028H19.0936L18.85 14.7637H18.0647L19.3421 11.1849H20.1871L21.4546 14.7637ZM19.7597 12.005L19.2974 13.4117H20.207L19.7597 12.005ZM21.8457 11.1849H22.5913V14.7637H21.8457V11.1849Z" fill="white"/>
<path d="M36.6654 17.214C36.771 18.0854 37.0351 18.7192 37.3784 19.1681C38.0121 19.9338 39.1212 20.3299 40.6791 20.3299C41.6298 20.3299 42.3955 20.2243 42.9765 20.0131C44.0855 19.617 44.6401 18.8776 44.6401 17.8213C44.6401 17.1876 44.376 16.7123 43.8215 16.369C43.2669 16.0257 42.3955 15.7353 41.2073 15.4712L39.2004 15.0223C37.2463 14.5734 35.8732 14.0981 35.1074 13.57C33.84 12.6721 33.1798 11.3254 33.1798 9.4506C33.1798 7.7342 33.8135 6.33467 35.0546 5.19921C36.2693 4.09015 38.0913 3.50921 40.4943 3.50921C42.5012 3.50921 44.2176 4.03734 45.6171 5.09358C47.043 6.17624 47.7824 7.70779 47.8352 9.74107H44.0327C43.9535 8.5792 43.4518 7.7606 42.5276 7.28529C41.9202 6.96842 41.1281 6.80998 40.2302 6.80998C39.2004 6.80998 38.3818 7.02123 37.7745 7.44373C37.1671 7.83982 36.8503 8.42076 36.8503 9.16013C36.8503 9.84669 37.1671 10.3484 37.7745 10.6917C38.1442 10.9029 38.9627 11.167 40.2302 11.4839L43.5046 12.2497C44.9569 12.6193 46.0396 13.0682 46.7526 13.6492C47.888 14.5206 48.469 15.8409 48.469 17.5309C48.469 19.2473 47.8088 20.6996 46.4885 21.8351C45.1418 22.997 43.2669 23.5779 40.8376 23.5779C38.3818 23.5779 36.4278 22.997 35.0018 21.8615C33.5759 20.7524 32.8893 19.1945 32.8893 17.214H36.6654ZM51.1886 4.06374H54.859V23.0762H51.1886V4.06374ZM58.5115 3.95812H62.2348V7.33811H58.5115V3.95812ZM62.2348 23.0762H58.5115V9.0281H62.2348V23.0762ZM73.2546 9.23935C73.9148 9.60903 74.4693 10.1372 74.8654 10.7973V4.09015H78.5887V23.0762H75.0239V21.1221C74.4957 21.9671 73.9148 22.5745 73.2282 22.9441C72.5681 23.3138 71.7231 23.5251 70.7196 23.5251C69.0825 23.5251 67.7093 22.8385 66.6003 21.5182C65.4648 20.1979 64.9103 18.4815 64.9103 16.4218C64.9103 14.0189 65.4648 12.1176 66.5739 10.7445C67.6565 9.37138 69.1353 8.68482 70.9837 8.68482C71.8287 8.68482 72.5945 8.86966 73.2546 9.23935ZM74.1524 19.2473C74.707 18.4815 74.971 17.4781 74.971 16.2634C74.971 14.547 74.5485 13.3059 73.6771 12.5665C73.149 12.1176 72.5153 11.9064 71.8023 11.9064C70.7461 11.9064 69.9539 12.3025 69.4522 13.1211C68.9504 13.9132 68.6864 14.9431 68.6864 16.1314C68.6864 17.4517 68.9504 18.4815 69.4786 19.2473C69.9803 20.0395 70.7461 20.4092 71.8023 20.4092C72.8321 20.4092 73.6243 20.0395 74.1524 19.2473ZM82.9808 25.796C83.3505 25.8224 83.6937 25.796 84.0106 25.7696C84.3275 25.7168 84.6179 25.6112 84.8292 25.4527C85.0669 25.3207 85.2517 25.0038 85.4365 24.5549C85.6214 24.0796 85.7006 23.7891 85.6742 23.6835L80.4986 9.0281H84.5915L87.6547 19.3793L90.5593 9.0281H94.4674L89.6351 22.8385C88.7109 25.5055 87.9715 27.1691 87.4434 27.8029C86.8889 28.4366 85.8062 28.7535 84.1955 28.7535H83.4033C83.2184 28.7535 82.928 28.7271 82.5055 28.7007V25.7696L82.9808 25.796Z" fill="#161616"/>
</svg>
