<svg width="12" height="12" viewBox="0 0 12 12" fill="none" xmlns="http://www.w3.org/2000/svg">
<path d="M11.474 11.5593C11.629 11.5593 11.7547 11.4336 11.7547 11.2786L11.7547 0.909845C11.7547 0.822601 11.7375 0.736207 11.7042 0.655598C11.6708 0.57499 11.6219 0.501748 11.5602 0.440057C11.4985 0.378366 11.4252 0.329436 11.3446 0.296062C11.264 0.262687 11.1776 0.245524 11.0904 0.245551L0.721698 0.245552C0.566661 0.245552 0.440983 0.371242 0.440996 0.526279L0.441065 1.29358C0.441079 1.4486 0.56675 1.57426 0.721767 1.57426L9.48634 1.57426L0.169403 10.8912C0.0597816 11.0008 0.0597826 11.1785 0.169404 11.2882L0.712065 11.8308C0.821686 11.9404 0.999416 11.9404 1.10904 11.8308L10.426 2.51389L10.4261 11.2786C10.4261 11.4336 10.5518 11.5593 10.7068 11.5593H11.474Z" fill="#EFF2F5"/>
</svg>
