<svg width="24" height="18" viewBox="0 0 24 18" fill="none" xmlns="http://www.w3.org/2000/svg">
<path fill-rule="evenodd" clip-rule="evenodd" d="M0.388672 4.35443C0.388672 3.43059 0.755665 2.54459 1.40892 1.89134C2.06217 1.23809 2.94817 0.871094 3.87201 0.871094H20.1276C21.0514 0.871094 21.9374 1.23809 22.5907 1.89134C23.2439 2.54459 23.6109 3.43059 23.6109 4.35443V13.6433C23.6109 14.5672 23.2439 15.4532 22.5907 16.1064C21.9374 16.7597 21.0514 17.1266 20.1276 17.1266H3.87201C2.94817 17.1266 2.06217 16.7597 1.40892 16.1064C0.755665 15.4532 0.388672 14.5672 0.388672 13.6433V4.35443ZM3.87201 3.19332H20.1276C20.4355 3.19332 20.7308 3.31565 20.9486 3.5334C21.1663 3.75115 21.2887 4.04648 21.2887 4.35443V7.83776H2.71089V4.35443C2.71089 4.04648 2.83323 3.75115 3.05098 3.5334C3.26873 3.31565 3.56406 3.19332 3.87201 3.19332ZM2.71089 10.16V13.6433C2.71089 13.9513 2.83323 14.2466 3.05098 14.4643C3.26873 14.6821 3.56406 14.8044 3.87201 14.8044H7.35534V10.16H2.71089ZM9.67756 14.8044H20.1276C20.4355 14.8044 20.7308 14.6821 20.9486 14.4643C21.1663 14.2466 21.2887 13.9513 21.2887 13.6433V10.16H9.67756V14.8044Z" fill="#1252D3"/>
</svg>
