<svg width="18" height="16" viewBox="0 0 18 16" fill="none" xmlns="http://www.w3.org/2000/svg">
<path d="M9.01098 12.9341C9.69558 12.9341 10.3735 12.7992 11.006 12.5373C11.6385 12.2753 12.2131 11.8913 12.6972 11.4072C13.1813 10.9231 13.5653 10.3484 13.8273 9.71593C14.0893 9.08344 14.2241 8.40554 14.2241 7.72095C14.2241 7.03635 14.0893 6.35845 13.8273 5.72597C13.5653 5.09348 13.1813 4.51879 12.6972 4.0347C12.2131 3.55062 11.6385 3.16662 11.006 2.90464C10.3735 2.64265 9.69558 2.50781 9.01098 2.50781C7.62838 2.50781 6.3024 3.05705 5.32474 4.0347C4.34709 5.01236 3.79785 6.33834 3.79785 7.72095C3.79785 9.10355 4.34709 10.4295 5.32474 11.4072C6.3024 12.3848 7.62838 12.9341 9.01098 12.9341Z" stroke="#646464" stroke-width="1.25115" stroke-linecap="round" stroke-linejoin="round"/>
<path d="M11.9146 8.39085C11.4223 8.50445 10.9092 8.49098 10.4235 8.35169C9.93784 8.21241 9.49558 7.95188 9.13832 7.59462C8.78106 7.23736 8.52053 6.7951 8.38125 6.30944C8.24196 5.82377 8.22849 5.31066 8.3421 4.81836C7.63143 4.98523 7.00672 5.40712 6.58645 6.004C6.16618 6.60088 5.97959 7.33125 6.06206 8.05657C6.14452 8.78189 6.49032 9.45173 7.03386 9.93902C7.5774 10.4263 8.28088 10.6972 9.01087 10.7003C10.4259 10.7003 11.61 9.71349 11.9146 8.39085Z" stroke="#646464" stroke-width="1.25115" stroke-linecap="round" stroke-linejoin="round"/>
<path d="M9.01074 2.50704V1.01758M9.01074 14.4228V12.9333" stroke="#646464" stroke-width="1.25115" stroke-linecap="round" stroke-linejoin="round"/>
<path d="M3.79768 7.72109H1.56348M16.4581 7.72109H14.2239M12.6972 4.03466L14.2761 2.45582M12.6972 11.4075L14.2768 12.9871M3.7448 12.9871L5.32438 11.4075L3.74555 12.9864L3.7448 12.9871ZM3.7448 2.45508L5.32438 4.03466L3.74555 2.45582L3.7448 2.45508Z" stroke="#646464" stroke-width="1.25115" stroke-linecap="round" stroke-linejoin="round"/>
</svg>
